<mxfile host="app.diagrams.net" modified="2023-11-21T02:31:15.545Z" agent="Mozilla/5.0 (Windows NT 10.0; Win64; x64) AppleWebKit/537.36 (KHTML, like Gecko) Chrome/119.0.0.0 Safari/537.36" etag="vSDIiHajBff5wC4sdVHN" version="22.1.3" type="github">
  <diagram name="第 1 页" id="G4wx4dGHhcmsgvZmPqqS">
    <mxGraphModel dx="1242" dy="865" grid="0" gridSize="10" guides="0" tooltips="1" connect="1" arrows="1" fold="1" page="0" pageScale="1" pageWidth="827" pageHeight="1169" background="none" math="1" shadow="0">
      <root>
        <mxCell id="0" />
        <mxCell id="1" parent="0" />
        <mxCell id="EOW7TTWgIUj7HTX9r4kX-4" value="" style="edgeStyle=orthogonalEdgeStyle;rounded=0;orthogonalLoop=1;jettySize=auto;html=1;entryX=0.5;entryY=0;entryDx=0;entryDy=0;strokeWidth=0.5;" edge="1" parent="1" source="EOW7TTWgIUj7HTX9r4kX-1" target="EOW7TTWgIUj7HTX9r4kX-5">
          <mxGeometry relative="1" as="geometry">
            <mxPoint x="-119" y="46" as="targetPoint" />
          </mxGeometry>
        </mxCell>
        <mxCell id="EOW7TTWgIUj7HTX9r4kX-1" value="" style="ellipse;whiteSpace=wrap;html=1;aspect=fixed;strokeWidth=0.5;" vertex="1" parent="1">
          <mxGeometry x="-131" y="-58" width="24" height="24" as="geometry" />
        </mxCell>
        <mxCell id="EOW7TTWgIUj7HTX9r4kX-2" value="" style="endArrow=classic;html=1;rounded=0;entryX=0.5;entryY=0;entryDx=0;entryDy=0;strokeWidth=0.5;" edge="1" parent="1" target="EOW7TTWgIUj7HTX9r4kX-1">
          <mxGeometry width="50" height="50" relative="1" as="geometry">
            <mxPoint x="-119" y="-83" as="sourcePoint" />
            <mxPoint x="-85" y="-17" as="targetPoint" />
          </mxGeometry>
        </mxCell>
        <mxCell id="EOW7TTWgIUj7HTX9r4kX-5" value="" style="shape=orEllipse;perimeter=ellipsePerimeter;whiteSpace=wrap;html=1;backgroundOutline=1;strokeWidth=0.5;" vertex="1" parent="1">
          <mxGeometry x="-131" y="194" width="24" height="24" as="geometry" />
        </mxCell>
        <mxCell id="EOW7TTWgIUj7HTX9r4kX-6" value="Conv(1×3)" style="rounded=0;whiteSpace=wrap;html=1;fillColor=#ffe6cc;strokeColor=#000000;fontFamily=Times New Roman;fontSize=8;strokeWidth=0.5;" vertex="1" parent="1">
          <mxGeometry x="-70" y="-34" width="120" height="20" as="geometry" />
        </mxCell>
        <mxCell id="EOW7TTWgIUj7HTX9r4kX-10" value="" style="endArrow=classic;html=1;rounded=0;exitX=1;exitY=0.5;exitDx=0;exitDy=0;entryX=0.5;entryY=0;entryDx=0;entryDy=0;strokeWidth=0.5;" edge="1" parent="1" source="EOW7TTWgIUj7HTX9r4kX-1" target="EOW7TTWgIUj7HTX9r4kX-6">
          <mxGeometry width="50" height="50" relative="1" as="geometry">
            <mxPoint x="-130" y="30" as="sourcePoint" />
            <mxPoint x="-80" y="-20" as="targetPoint" />
            <Array as="points">
              <mxPoint x="-10" y="-46" />
            </Array>
          </mxGeometry>
        </mxCell>
        <mxCell id="EOW7TTWgIUj7HTX9r4kX-15" value="Conv(1×3)" style="rounded=0;whiteSpace=wrap;html=1;fillColor=#ffe6cc;strokeColor=#000000;fontFamily=Times New Roman;fontSize=8;strokeWidth=0.5;" vertex="1" parent="1">
          <mxGeometry x="-70" width="120" height="20" as="geometry" />
        </mxCell>
        <mxCell id="EOW7TTWgIUj7HTX9r4kX-17" value="" style="endArrow=classic;html=1;rounded=0;exitX=0.5;exitY=1;exitDx=0;exitDy=0;entryX=0.5;entryY=0;entryDx=0;entryDy=0;strokeWidth=0.5;" edge="1" parent="1" source="EOW7TTWgIUj7HTX9r4kX-6" target="EOW7TTWgIUj7HTX9r4kX-15">
          <mxGeometry width="50" height="50" relative="1" as="geometry">
            <mxPoint x="-130" y="40" as="sourcePoint" />
            <mxPoint x="-80" y="-10" as="targetPoint" />
          </mxGeometry>
        </mxCell>
        <mxCell id="EOW7TTWgIUj7HTX9r4kX-18" value="BatchNorm" style="rounded=0;whiteSpace=wrap;html=1;fillColor=#fff2cc;strokeColor=#000000;fontFamily=Times New Roman;fontSize=8;strokeWidth=0.5;" vertex="1" parent="1">
          <mxGeometry x="-50" y="34" width="80" height="20" as="geometry" />
        </mxCell>
        <mxCell id="EOW7TTWgIUj7HTX9r4kX-19" value="" style="endArrow=classic;html=1;rounded=0;exitX=0.5;exitY=1;exitDx=0;exitDy=0;entryX=0.5;entryY=0;entryDx=0;entryDy=0;strokeWidth=0.5;" edge="1" parent="1" target="EOW7TTWgIUj7HTX9r4kX-18">
          <mxGeometry width="50" height="50" relative="1" as="geometry">
            <mxPoint x="-10" y="20" as="sourcePoint" />
            <mxPoint x="-80" y="24" as="targetPoint" />
          </mxGeometry>
        </mxCell>
        <mxCell id="EOW7TTWgIUj7HTX9r4kX-22" value="Relu" style="rounded=0;whiteSpace=wrap;html=1;fillColor=#d5e8d4;strokeColor=#000000;fontFamily=Times New Roman;fontSize=8;strokeWidth=0.5;" vertex="1" parent="1">
          <mxGeometry x="-50" y="68" width="80" height="20" as="geometry" />
        </mxCell>
        <mxCell id="EOW7TTWgIUj7HTX9r4kX-23" value="" style="endArrow=classic;html=1;rounded=0;exitX=0.5;exitY=1;exitDx=0;exitDy=0;entryX=0.5;entryY=0;entryDx=0;entryDy=0;strokeWidth=0.5;" edge="1" parent="1" target="EOW7TTWgIUj7HTX9r4kX-22">
          <mxGeometry width="50" height="50" relative="1" as="geometry">
            <mxPoint x="-10" y="54" as="sourcePoint" />
            <mxPoint x="-80" y="58" as="targetPoint" />
          </mxGeometry>
        </mxCell>
        <mxCell id="EOW7TTWgIUj7HTX9r4kX-24" value="Conv(1×3)" style="rounded=0;whiteSpace=wrap;html=1;fillColor=#ffe6cc;strokeColor=#000000;fontFamily=Times New Roman;fontSize=8;strokeWidth=0.5;" vertex="1" parent="1">
          <mxGeometry x="-70" y="102" width="120" height="20" as="geometry" />
        </mxCell>
        <mxCell id="EOW7TTWgIUj7HTX9r4kX-25" value="Conv(1×3)" style="rounded=0;whiteSpace=wrap;html=1;fillColor=#ffe6cc;strokeColor=#000000;fontFamily=Times New Roman;fontSize=8;strokeWidth=0.5;" vertex="1" parent="1">
          <mxGeometry x="-70" y="136" width="120" height="20" as="geometry" />
        </mxCell>
        <mxCell id="EOW7TTWgIUj7HTX9r4kX-26" value="" style="endArrow=classic;html=1;rounded=0;exitX=0.5;exitY=1;exitDx=0;exitDy=0;entryX=0.5;entryY=0;entryDx=0;entryDy=0;strokeWidth=0.5;" edge="1" parent="1" source="EOW7TTWgIUj7HTX9r4kX-24" target="EOW7TTWgIUj7HTX9r4kX-25">
          <mxGeometry width="50" height="50" relative="1" as="geometry">
            <mxPoint x="-130" y="176" as="sourcePoint" />
            <mxPoint x="-80" y="126" as="targetPoint" />
          </mxGeometry>
        </mxCell>
        <mxCell id="EOW7TTWgIUj7HTX9r4kX-27" value="BatchNorm" style="rounded=0;whiteSpace=wrap;html=1;fillColor=#fff2cc;strokeColor=#000000;fontFamily=Times New Roman;fontSize=8;strokeWidth=0.5;" vertex="1" parent="1">
          <mxGeometry x="-50" y="170" width="80" height="20" as="geometry" />
        </mxCell>
        <mxCell id="EOW7TTWgIUj7HTX9r4kX-28" value="" style="endArrow=classic;html=1;rounded=0;exitX=0.5;exitY=1;exitDx=0;exitDy=0;entryX=0.5;entryY=0;entryDx=0;entryDy=0;strokeWidth=0.5;" edge="1" parent="1" target="EOW7TTWgIUj7HTX9r4kX-27">
          <mxGeometry width="50" height="50" relative="1" as="geometry">
            <mxPoint x="-10" y="156" as="sourcePoint" />
            <mxPoint x="-80" y="160" as="targetPoint" />
          </mxGeometry>
        </mxCell>
        <mxCell id="EOW7TTWgIUj7HTX9r4kX-29" value="" style="endArrow=classic;html=1;rounded=0;exitX=0.5;exitY=1;exitDx=0;exitDy=0;entryX=0.5;entryY=0;entryDx=0;entryDy=0;strokeWidth=0.5;" edge="1" parent="1">
          <mxGeometry width="50" height="50" relative="1" as="geometry">
            <mxPoint x="-10.170000000000002" y="88" as="sourcePoint" />
            <mxPoint x="-10.170000000000002" y="102" as="targetPoint" />
          </mxGeometry>
        </mxCell>
        <mxCell id="EOW7TTWgIUj7HTX9r4kX-30" value="" style="endArrow=classic;html=1;rounded=0;exitX=0.5;exitY=1;exitDx=0;exitDy=0;entryX=1;entryY=0.5;entryDx=0;entryDy=0;strokeWidth=0.5;" edge="1" parent="1" source="EOW7TTWgIUj7HTX9r4kX-27" target="EOW7TTWgIUj7HTX9r4kX-5">
          <mxGeometry width="50" height="50" relative="1" as="geometry">
            <mxPoint x="-30" y="226" as="sourcePoint" />
            <mxPoint x="67" y="238" as="targetPoint" />
            <Array as="points">
              <mxPoint x="-10" y="206" />
            </Array>
          </mxGeometry>
        </mxCell>
        <mxCell id="EOW7TTWgIUj7HTX9r4kX-31" value="" style="endArrow=classic;html=1;rounded=0;entryX=0.5;entryY=0;entryDx=0;entryDy=0;strokeWidth=0.5;" edge="1" parent="1">
          <mxGeometry width="50" height="50" relative="1" as="geometry">
            <mxPoint x="-119" y="218" as="sourcePoint" />
            <mxPoint x="-119" y="243" as="targetPoint" />
          </mxGeometry>
        </mxCell>
        <mxCell id="EOW7TTWgIUj7HTX9r4kX-32" value="&lt;font style=&quot;font-size: 8px;&quot;&gt;$$X^{(L)}$$&lt;/font&gt;" style="text;html=1;align=center;verticalAlign=middle;resizable=0;points=[];autosize=1;strokeColor=none;fillColor=none;fontFamily=Times New Roman;fontSize=8;" vertex="1" parent="1">
          <mxGeometry x="-146" y="-101" width="61" height="22" as="geometry" />
        </mxCell>
        <mxCell id="EOW7TTWgIUj7HTX9r4kX-33" value="&lt;font style=&quot;font-size: 8px;&quot;&gt;$$X^{(L+1)}$$&lt;/font&gt;" style="text;html=1;align=center;verticalAlign=middle;resizable=0;points=[];autosize=1;strokeColor=none;fillColor=none;fontFamily=Times New Roman;fontSize=8;" vertex="1" parent="1">
          <mxGeometry x="-152" y="239" width="70" height="22" as="geometry" />
        </mxCell>
      </root>
    </mxGraphModel>
  </diagram>
</mxfile>
